:FULLY-SPECIFIED
:FORCE-ALL-JOINTS-BE-3DOF
:DEGREES
442
root 1.48949 15.2316 -9.1147 5.49212 4.83139 -13.5423
lfemur -46.8501 16.8114 3.9745
ltibia 62.9553 0 0
lfoot -24.9916 -10.2701 0
ltoes -12.7255 0 0
rfemur -14.9411 -3.44768 8.90199
rtibia 38.8284 0 0
rfoot -14.6389 -13.9723 0
rtoes -49.791 0 0
lowerback 6.02945 1.6015 4.3986
upperback 1.01281 2.43843 0.924751
thorax -2.1908 1.18676 -1.7001
lowerneck -7.15866 0.0337935 5.62298
upperneck 0.687406 -0.434285 0.0690367
head 1.41974 -0.189785 -0.949097
lclavicle 2.90226e-14 6.36111e-15 0
lhumerus -39.6318 -28.4329 97.6213
lradius 54.1431 0 0
lwrist 7.92235 0 0
lhand -20.0855 -1.30814 0
lfingers 7.12502 0 0
lthumb 6.25724 28.5794 0
rclavicle 2.90226e-14 6.36111e-15 0
rhumerus -48.3514 -2.52445 -89.7222
rradius 66.3347 0 0
rwrist 12.906 0 0
rhand -30.9208 -29.1118 0
rfingers 7.12502 0 0
rthumb -4.20662 -59.05 0
443
root 1.46996 15.2351 -9.05714 5.45031 5.91777 -13.5189
lfemur 0 0 0
ltibia 62.7782 -0 0
lfoot 0 0 0
ltoes -12.0133 0 0
rfemur 0 0 0
rtibia 38.8271 -0 0
rfoot -13.53 -13.9865 -0.00491353
rtoes 0 0 0
lowerback 5.8691 1.56 4.42645
upperback 0 0 0
thorax -2.15717 1.15747 -1.67216
lowerneck 0 0 0
upperneck 0.748269 -0.594612 0.0853868
head 0 0 0
lclavicle 0 0 0
lhumerus -39.8451 -28.317 97.8534
lradius 0 0 0
lwrist 0 0 0
lhand 0 0 0
lfingers 0 0 0
lthumb 6.15068 28.257 0.0103745
rclavicle 0 0 0
rhumerus 0 0 0
rradius 66.2143 -0 0
rwrist 0 0 0
rhand 0 0 0
rfingers 0 0 0
rthumb -4.22027 -59.0722 9.12542e-05
444
root 1.46285 15.2454 -8.99702 5.39702 7.31636 -13.4898
lfemur 0 0 0
ltibia 62.5503 -0 0
lfoot 0 0 0
ltoes -11.0965 0 0
rfemur 0 0 0
rtibia 38.8254 -0 0
rfoot -12.1024 -14.0049 -0.0108335
rtoes 0 0 0
lowerback 5.66265 1.50669 4.46248
upperback 0 0 0
thorax -2.11389 1.11973 -1.63622
lowerneck 0 0 0
upperneck 0.826557 -0.801036 0.106185
head 0 0 0
lclavicle 0 0 0
lhumerus -40.1185 -28.1666 98.1511
lradius 0 0 0
lwrist 0 0 0
lhand 0 0 0
lfingers 0 0 0
lthumb 6.01341 27.8419 0.0228471
rclavicle 0 0 0
rhumerus 0 0 0
rradius 66.0593 -0 0
rwrist 0 0 0
rhand 0 0 0
rfingers 0 0 0
rthumb -4.23785 -59.1008 0.000200938
445
root 1.46729 15.2619 -8.93461 5.33395 8.98971 -13.4566
lfemur 0 0 0
ltibia 62.2776 -0 0
lfoot 0 0 0
ltoes -9.99966 0 0
rfemur 0 0 0
rtibia 38.8234 -0 0
rfoot -10.3944 -14.027 -0.0173119
rtoes 0 0 0
lowerback 5.4156 1.44308 4.50584
upperback 0 0 0
thorax -2.06215 1.07455 -1.59325
lowerneck 0 0 0
upperneck 0.920131 -1.04804 0.1307
head 0 0 0
lclavicle 0 0 0
lhumerus -40.4439 -27.9851 98.5056
lradius 0 0 0
lwrist 0 0 0
lhand 0 0 0
lfingers 0 0 0
lthumb 5.84906 27.3453 0.0364624
rclavicle 0 0 0
rhumerus 0 0 0
rradius 65.8738 -0 0
rwrist 0 0 0
rhand 0 0 0
rfingers 0 0 0
rthumb -4.25889 -59.135 0.000320643
446
root 1.48246 15.2841 -8.87017 5.26275 10.9004 -13.4208
lfemur 0 0 0
ltibia 61.9662 -0 0
lfoot 0 0 0
ltoes -8.74724 0 0
rfemur 0 0 0
rtibia 38.8212 -0 0
rfoot -8.44423 -14.0526 -0.0238968
rtoes 0 0 0
lowerback 5.13348 1.37069 4.55567
upperback 0 0 0
thorax -2.00311 1.02291 -1.54425
lowerneck 0 0 0
upperneck 1.02685 -1.33012 0.1582
head 0 0 0
lclavicle 0 0 0
lhumerus -40.8133 -27.7757 98.9083
lradius 0 0 0
lwrist 0 0 0
lhand 0 0 0
lfingers 0 0 0
lthumb 5.66128 26.7782 0.0502658
rclavicle 0 0 0
rhumerus 0 0 0
rradius 65.6621 -0 0
rwrist 0 0 0
rhand 0 0 0
rfingers 0 0 0
rthumb -4.2829 -59.1741 0.000441967
447
root 1.50748 15.3114 -8.80399 5.18493 13.0109 -13.3837
lfemur 0 0 0
ltibia 61.6223 -0 0
lfoot 0 0 0
ltoes -7.36386 0 0
rfemur 0 0 0
rtibia 38.8187 -0 0
rfoot -6.29011 -14.081 -0.0301551
rtoes 0 0 0
lowerback 4.82179 1.291 4.61113
upperback 0 0 0
thorax -1.93795 0.965812 -1.49018
lowerneck 0 0 0
upperneck 1.14459 -1.64176 0.187969
head 0 0 0
lclavicle 0 0 0
lhumerus -41.2185 -27.5417 99.3503
lradius 0 0 0
lwrist 0 0 0
lhand 0 0 0
lfingers 0 0 0
lthumb 5.45371 26.1517 0.0633514
rclavicle 0 0 0
rhumerus 0 0 0
rradius 65.4282 -0 0
rwrist 0 0 0
rhand 0 0 0
rfingers 0 0 0
rthumb -4.30942 -59.2172 0.000556953
448
root 1.54152 15.3432 -8.73632 5.1019 15.2838 -13.3468
lfemur 0 0 0
ltibia 61.2519 -0 0
lfoot 0 0 0
ltoes -5.87406 0 0
rfemur 0 0 0
rtibia 38.816 -0 0
rfoot -3.97028 -14.1119 -0.0356934
rtoes 0 0 0
lowerback 4.48605 1.20553 4.67134
upperback 0 0 0
thorax -1.86784 0.904255 -1.43203
lowerneck 0 0 0
upperneck 1.27123 -1.97744 0.219317
head 0 0 0
lclavicle 0 0 0
lhumerus -41.6517 -27.2866 99.8233
lradius 0 0 0
lwrist 0 0 0
lhand 0 0 0
lfingers 0 0 0
lthumb 5.23003 25.4771 0.0749045
rclavicle 0 0 0
rhumerus 0 0 0
rradius 65.1763 -0 0
rwrist 0 0 0
rhand 0 0 0
rfingers 0 0 0
rthumb -4.33799 -59.2637 0.000658449
